<?xml version="1.0" standalone="no"?>
<!DOCTYPE svg PUBLIC "-//W3C//DTD SVG 20010904//EN"
 "http://www.w3.org/TR/2001/REC-SVG-20010904/DTD/svg10.dtd">
<svg version="1.0" xmlns="http://www.w3.org/2000/svg"
 width="225.000000pt" height="227.000000pt" viewBox="0 0 225.000000 227.000000"
 preserveAspectRatio="xMidYMid meet">

<g transform="translate(0.000000,227.000000) scale(0.100000,-0.100000)"
fill="#000000" stroke="none">
<path d="M0 1135 l0 -1135 1125 0 1125 0 0 1135 0 1135 -1125 0 -1125 0 0
-1135z m1335 941 c60 -6 138 -28 126 -35 -5 -4 7 -7 27 -7 33 0 74 -17 167
-68 28 -15 28 -16 7 -16 -13 0 -20 -4 -17 -10 3 -6 18 -8 32 -5 18 3 36 -4 60
-23 92 -74 103 -85 98 -91 -4 -3 -13 2 -20 12 -9 13 -15 15 -20 7 -10 -16 7
-31 41 -34 17 -2 39 -16 56 -37 31 -37 34 -46 16 -52 -7 -2 -6 -3 3 -2 26 4
36 -6 79 -84 25 -46 38 -82 35 -95 -3 -12 -2 -15 1 -8 9 21 46 -67 39 -92 -4
-14 -3 -17 3 -8 6 9 13 -6 21 -45 7 -32 16 -71 19 -88 16 -65 -1 -331 -19
-319 -6 3 -7 -5 -4 -19 4 -16 1 -30 -10 -40 -9 -9 -13 -21 -10 -27 7 -12 -36
-130 -47 -130 -5 0 -8 -9 -8 -19 0 -11 -5 -23 -10 -26 -5 -3 -10 -1 -10 6 0
10 -3 10 -12 0 -10 -11 -10 -14 -1 -18 10 -4 9 -12 -3 -34 -8 -16 -19 -27 -24
-24 -6 4 -10 -1 -10 -10 0 -8 -7 -18 -15 -21 -8 -4 -15 -13 -15 -21 0 -10 -6
-13 -16 -9 -11 4 -14 1 -10 -12 4 -12 -7 -30 -34 -57 -22 -21 -40 -36 -40 -32
0 3 10 15 22 27 17 16 18 20 6 20 -9 0 -23 -15 -32 -34 -19 -41 -41 -60 -57
-50 -7 4 -9 3 -6 -2 8 -13 -2 -26 -40 -52 -25 -18 -36 -20 -58 -12 -37 14 -45
12 -16 -4 25 -14 25 -14 -27 -40 -59 -30 -70 -32 -52 -11 7 8 19 15 26 15 8 0
14 4 14 10 0 12 -29 2 -53 -18 -15 -14 -17 -13 -18 4 0 11 -3 14 -6 6 -3 -7 1
-19 7 -27 10 -12 10 -15 -2 -15 -8 0 -29 -7 -46 -16 -44 -21 -86 -15 -90 14
-2 12 -7 22 -11 22 -5 0 -11 37 -15 83 -7 94 -9 108 -17 122 -4 6 -6 51 -5
100 1 100 23 161 64 181 17 8 20 13 10 17 -14 6 10 10 52 8 22 -1 23 0 5 8
-20 8 -20 8 1 15 12 3 60 7 108 8 48 1 79 5 69 9 -14 4 -6 11 32 29 28 12 58
24 67 25 22 2 34 13 24 22 -4 4 -11 1 -16 -7 -6 -9 -10 -10 -10 -3 0 6 8 18
18 25 19 14 50 74 64 123 7 29 8 29 4 -5 -3 -19 -7 -44 -11 -55 l-7 -20 14 20
c19 25 30 103 15 108 -7 2 -7 19 0 55 6 29 7 55 2 57 -4 3 -9 -1 -11 -7 -3 -7
-8 6 -12 30 -3 24 -14 54 -22 68 -9 13 -14 31 -10 39 3 8 1 15 -4 15 -6 0 -10
-5 -10 -11 0 -6 -23 13 -51 43 -28 29 -48 47 -43 39 6 -11 3 -13 -12 -7 -136
56 -274 39 -348 -43 -10 -11 -23 -18 -29 -14 -5 3 -7 1 -4 -4 4 -6 0 -16 -8
-23 -8 -7 -15 -19 -15 -26 0 -8 -6 -13 -12 -12 -7 2 -12 -3 -10 -11 5 -22 -9
-52 -20 -45 -7 5 -9 0 -6 -14 4 -12 2 -22 -3 -22 -5 0 -9 7 -9 15 0 13 -18 50
-67 138 -7 12 -13 18 -13 12 0 -5 -6 -3 -13 6 -7 8 -21 19 -32 23 -16 6 -17 9
-5 17 11 8 9 9 -8 4 -13 -4 -28 -2 -35 3 -23 18 -92 27 -212 27 -113 0 -123 2
-167 28 -46 27 -69 49 -29 28 14 -8 20 -7 24 2 3 9 -4 12 -26 11 -37 -3 -67
14 -60 35 4 12 3 13 -4 3 -8 -10 -16 -9 -42 5 l-32 18 -29 -32 c-26 -29 -28
-36 -18 -59 11 -23 17 -25 57 -23 81 3 88 1 112 -37 17 -28 19 -38 9 -44 -7
-4 -9 -13 -6 -19 4 -6 12 -8 18 -5 8 5 9 1 3 -12 -4 -10 -10 -32 -13 -49 -3
-16 -8 -32 -13 -35 -8 -6 -31 -222 -23 -229 2 -2 4 4 4 14 0 10 14 -9 30 -42
17 -33 52 -81 78 -105 26 -25 46 -50 44 -57 -2 -6 1 -11 6 -11 6 0 12 5 14 11
2 6 11 7 22 3 17 -7 17 -8 3 -13 -9 -3 23 -7 71 -8 47 -1 100 -8 117 -15 32
-13 90 -66 81 -75 -2 -3 5 -22 18 -42 20 -31 23 -47 20 -116 -2 -44 -7 -122
-13 -173 -5 -51 -9 -111 -8 -133 2 -37 1 -39 -28 -40 l-30 -1 30 -8 30 -8 -30
-1 c-16 0 -48 5 -69 13 -32 11 -36 15 -20 20 10 3 2 4 -18 1 -21 -2 -38 0 -38
4 0 5 -15 11 -32 15 -18 3 -57 18 -87 32 -40 20 -50 29 -40 36 10 6 7 7 -8 3
-16 -4 -36 3 -68 25 -25 17 -45 33 -45 36 0 3 6 2 12 -2 9 -5 9 -2 -1 9 -15
18 -26 23 -16 7 3 -5 2 -10 -3 -10 -13 0 -52 48 -52 64 0 7 -7 20 -17 27 -15
13 -15 12 -4 -11 11 -22 9 -21 -18 7 -17 18 -31 39 -31 47 0 9 -4 16 -10 16
-5 0 -10 6 -10 13 0 6 -8 21 -17 32 -14 18 -15 19 -9 1 5 -16 4 -17 -9 -6 -8
7 -13 16 -10 20 2 4 -5 17 -16 29 -27 28 -91 167 -93 201 -1 14 -10 41 -21 60
-17 31 -19 58 -20 227 0 141 3 195 13 204 6 7 12 21 12 31 0 10 3 18 8 18 4 0
8 12 8 28 2 42 65 176 76 160 6 -9 7 -6 4 8 -4 13 1 27 14 39 11 10 17 22 14
26 -3 5 -1 9 4 9 5 0 15 11 22 25 8 15 20 23 27 21 9 -4 13 1 11 12 -2 11 3
17 13 16 10 -1 15 5 12 15 -2 9 8 25 22 36 14 11 45 39 69 61 24 23 58 48 75
55 17 8 31 17 31 22 0 4 6 7 13 6 18 -4 97 23 97 32 0 5 -21 -1 -47 -12 -33
-14 -43 -16 -33 -5 24 23 140 67 160 61 12 -4 22 0 28 12 8 13 25 17 71 18 34
1 64 5 68 8 3 4 18 4 32 1 21 -4 23 -3 11 6 -11 8 11 10 90 6 58 -3 123 -7
145 -10z m-347 -763 c18 -14 30 -28 27 -33 -3 -4 2 -10 10 -14 9 -3 12 -12 8
-22 -4 -11 -2 -15 4 -11 14 9 35 -41 27 -66 -4 -11 -15 -30 -25 -41 -21 -22
-24 -36 -8 -36 5 0 7 -5 4 -10 -4 -6 -11 -7 -17 -4 -7 4 -8 2 -4 -5 21 -33
-78 -77 -149 -67 -43 7 -59 20 -32 29 6 2 0 2 -15 0 -16 -3 -28 0 -28 6 0 6 5
11 11 11 5 0 7 5 3 11 -5 8 -9 8 -14 -1 -10 -16 -33 -2 -26 15 2 7 -4 22 -14
32 -50 54 8 206 87 226 49 12 119 3 151 -20z m588 12 c10 -8 27 -15 36 -15 21
0 58 -46 58 -71 0 -11 5 -19 10 -19 7 0 9 -14 5 -37 -5 -28 -4 -34 4 -23 17
24 13 3 -8 -43 -33 -72 -121 -136 -143 -105 -8 10 -11 10 -15 1 -7 -18 -33
-16 -33 2 0 15 -6 18 -50 19 -14 1 -24 6 -23 13 2 7 -2 12 -8 10 -18 -4 -58
75 -57 113 1 44 15 73 31 63 8 -4 8 -2 -1 9 -8 10 -9 19 -3 22 5 3 11 3 14 -1
2 -5 2 -2 0 6 -5 18 15 41 31 35 7 -3 21 4 31 16 22 24 91 28 121 5z m-524
-217 c-7 -7 -12 -8 -12 -2 0 14 12 26 19 19 2 -3 -1 -11 -7 -17z m425 -94 c-3
-3 -12 -4 -19 -1 -8 3 -5 6 6 6 11 1 17 -2 13 -5z m-243 -658 c-3 -8 2 -16 13
-18 14 -4 10 -8 -17 -20 -32 -13 -36 -13 -45 1 -19 33 -16 50 13 53 34 5 42 1
36 -16z m147 -86 c5 0 9 -4 9 -10 0 -5 -6 -10 -14 -10 -16 0 -25 28 -17 50 4
11 6 9 9 -7 2 -13 8 -23 13 -23z"/>
<path d="M956 2052 c-10 -17 27 -23 43 -7 10 10 11 15 3 15 -7 0 -12 -5 -12
-11 0 -8 -4 -8 -14 0 -9 7 -17 8 -20 3z"/>
<path d="M1035 2030 c3 -5 14 -10 23 -10 15 0 15 2 2 10 -20 13 -33 13 -25 0z"/>
<path d="M1208 2033 c7 -3 16 -2 19 1 4 3 -2 6 -13 5 -11 0 -14 -3 -6 -6z"/>
<path d="M1358 2033 c7 -3 16 -2 19 1 4 3 -2 6 -13 5 -11 0 -14 -3 -6 -6z"/>
<path d="M1531 2004 c0 -11 3 -14 6 -6 3 7 2 16 -1 19 -3 4 -6 -2 -5 -13z"/>
<path d="M1550 1980 c0 -5 7 -10 16 -10 8 0 12 5 9 10 -3 6 -10 10 -16 10 -5
0 -9 -4 -9 -10z"/>
<path d="M1590 1981 c0 -5 7 -12 16 -15 24 -9 27 -7 10 9 -17 17 -26 19 -26 6z"/>
<path d="M1510 1962 c0 -12 19 -26 26 -19 2 2 -2 10 -11 17 -9 8 -15 8 -15 2z"/>
<path d="M615 1885 c-16 -14 -25 -25 -19 -25 6 0 21 11 34 25 30 32 24 31 -15
0z"/>
<path d="M1777 1859 c7 -7 15 -10 18 -7 3 3 -2 9 -12 12 -14 6 -15 5 -6 -5z"/>
<path d="M530 1805 c-7 -9 -11 -18 -8 -20 3 -3 11 1 18 10 7 9 11 18 8 20 -3
3 -11 -1 -18 -10z"/>
<path d="M1833 1790 c-30 -12 -29 -18 2 -12 14 2 25 8 25 13 0 5 -1 9 -2 8 -2
0 -13 -4 -25 -9z"/>
<path d="M1870 1760 c0 -5 5 -10 11 -10 5 0 7 5 4 10 -3 6 -8 10 -11 10 -2 0
-4 -4 -4 -10z"/>
<path d="M440 1700 c-9 -16 -8 -18 5 -14 8 4 15 12 15 20 0 20 -7 17 -20 -6z"/>
<path d="M1864 1695 c8 -8 18 -15 22 -15 3 0 1 7 -6 15 -7 8 -17 15 -22 15 -5
0 -3 -7 6 -15z"/>
<path d="M1943 1665 c11 -23 27 -34 27 -17 -1 9 -26 42 -33 42 -3 0 0 -11 6
-25z"/>
<path d="M440 1644 c0 -8 5 -12 10 -9 6 3 10 10 10 16 0 5 -4 9 -10 9 -5 0
-10 -7 -10 -16z"/>
<path d="M1940 1624 c0 -13 18 -39 24 -34 2 3 -2 14 -10 24 -8 11 -14 16 -14
10z"/>
<path d="M1970 1621 c0 -5 5 -13 10 -16 6 -3 10 -2 10 4 0 5 -4 13 -10 16 -5
3 -10 2 -10 -4z"/>
<path d="M353 1555 c-3 -9 -3 -18 -1 -21 3 -3 8 4 11 16 6 23 -1 27 -10 5z"/>
<path d="M400 1554 c0 -8 5 -12 10 -9 6 3 10 10 10 16 0 5 -4 9 -10 9 -5 0
-10 -7 -10 -16z"/>
<path d="M381 1544 c0 -11 3 -14 6 -6 3 7 2 16 -1 19 -3 4 -6 -2 -5 -13z"/>
<path d="M698 1503 c7 -3 16 -2 19 1 4 3 -2 6 -13 5 -11 0 -14 -3 -6 -6z"/>
<path d="M878 1503 c6 -2 18 -2 25 0 6 3 1 5 -13 5 -14 0 -19 -2 -12 -5z"/>
<path d="M930 1500 c8 -5 24 -9 35 -9 l20 0 -20 9 c-11 5 -27 9 -35 9 -13 1
-13 0 0 -9z"/>
<path d="M1488 1503 c7 -3 16 -2 19 1 4 3 -2 6 -13 5 -11 0 -14 -3 -6 -6z"/>
<path d="M1640 1500 c0 -5 4 -10 9 -10 6 0 13 5 16 10 3 6 -1 10 -9 10 -9 0
-16 -4 -16 -10z"/>
<path d="M1568 1493 c6 -2 18 -2 25 0 6 3 1 5 -13 5 -14 0 -19 -2 -12 -5z"/>
<path d="M1355 1481 c-6 -11 9 -23 19 -14 9 9 7 23 -3 23 -6 0 -12 -4 -16 -9z"/>
<path d="M572 1465 c4 -4 3 -14 -3 -22 -9 -10 -8 -13 5 -13 19 0 22 26 4 36
-7 4 -10 4 -6 -1z"/>
<path d="M1255 1409 c-4 -6 -5 -12 -2 -15 2 -3 7 2 10 11 7 17 1 20 -8 4z"/>
<path d="M1793 1413 c9 -2 23 -2 30 0 6 3 -1 5 -18 5 -16 0 -22 -2 -12 -5z"/>
<path d="M1155 1400 c3 -5 8 -10 11 -10 2 0 4 5 4 10 0 6 -5 10 -11 10 -5 0
-7 -4 -4 -10z"/>
<path d="M2072 1355 c0 -16 2 -22 5 -12 2 9 2 23 0 30 -3 6 -5 -1 -5 -18z"/>
<path d="M1841 1353 c0 -12 -4 -30 -7 -40 -5 -14 -4 -15 5 -7 7 6 11 24 8 40
-3 21 -4 23 -6 7z"/>
<path d="M571 1344 c0 -11 3 -14 6 -6 3 7 2 16 -1 19 -3 4 -6 -2 -5 -13z"/>
<path d="M1190 1318 c0 -19 2 -20 10 -8 13 19 13 30 0 30 -5 0 -10 -10 -10
-22z"/>
<path d="M281 1284 c0 -11 3 -14 6 -6 3 7 2 16 -1 19 -3 4 -6 -2 -5 -13z"/>
<path d="M1831 1274 c0 -11 3 -14 6 -6 3 7 2 16 -1 19 -3 4 -6 -2 -5 -13z"/>
<path d="M572 1250 c0 -14 2 -19 5 -12 2 6 2 18 0 25 -3 6 -5 1 -5 -13z"/>
<path d="M563 1160 c0 -25 2 -35 4 -22 2 12 2 32 0 45 -2 12 -4 2 -4 -23z"/>
<path d="M580 1045 c0 -5 10 -21 21 -35 13 -17 17 -18 10 -5 -17 33 -31 51
-31 40z"/>
<path d="M282 1010 c0 -14 2 -19 5 -12 2 6 2 18 0 25 -3 6 -5 1 -5 -13z"/>
<path d="M561 1014 c0 -11 3 -14 6 -6 3 7 2 16 -1 19 -3 4 -6 -2 -5 -13z"/>
<path d="M2046 955 c4 -8 8 -15 10 -15 2 0 4 7 4 15 0 8 -4 15 -10 15 -5 0 -7
-7 -4 -15z"/>
<path d="M665 930 c3 -5 8 -10 11 -10 2 0 4 5 4 10 0 6 -5 10 -11 10 -5 0 -7
-4 -4 -10z"/>
<path d="M1585 851 c-17 -7 -16 -9 13 -16 18 -4 36 -4 39 -1 4 3 -4 6 -16 6
-12 0 -19 4 -16 10 7 11 7 11 -20 1z"/>
<path d="M738 843 c7 -3 16 -2 19 1 4 3 -2 6 -13 5 -11 0 -14 -3 -6 -6z"/>
<path d="M883 843 c9 -2 25 -2 35 0 9 3 1 5 -18 5 -19 0 -27 -2 -17 -5z"/>
<path d="M788 833 c6 -2 18 -2 25 0 6 3 1 5 -13 5 -14 0 -19 -2 -12 -5z"/>
<path d="M953 823 c9 -2 25 -2 35 0 9 3 1 5 -18 5 -19 0 -27 -2 -17 -5z"/>
<path d="M1518 823 c6 -2 18 -2 25 0 6 3 1 5 -13 5 -14 0 -19 -2 -12 -5z"/>
<path d="M370 815 c0 -5 5 -17 10 -25 5 -8 10 -10 10 -5 0 6 -5 17 -10 25 -5
8 -10 11 -10 5z"/>
<path d="M1376 774 c-10 -25 1 -29 14 -5 6 12 7 21 1 21 -5 0 -12 -7 -15 -16z"/>
<path d="M360 768 c0 -9 5 -20 10 -23 13 -8 13 5 0 25 -8 13 -10 13 -10 -2z"/>
<path d="M1400 740 c-13 -8 -12 -10 3 -10 9 0 17 5 17 10 0 12 -1 12 -20 0z"/>
<path d="M441 704 c0 -11 3 -14 6 -6 3 7 2 16 -1 19 -3 4 -6 -2 -5 -13z"/>
<path d="M1950 674 c0 -8 5 -12 10 -9 6 4 8 11 5 16 -9 14 -15 11 -15 -7z"/>
<path d="M1870 619 c0 -5 5 -7 10 -4 6 3 10 8 10 11 0 2 -4 4 -10 4 -5 0 -10
-5 -10 -11z"/>
<path d="M1796 545 c-11 -8 -17 -17 -14 -20 2 -3 13 4 23 15 21 23 18 25 -9 5z"/>
<path d="M1845 550 c4 -6 11 -8 16 -5 14 9 11 15 -7 15 -8 0 -12 -5 -9 -10z"/>
<path d="M1765 480 c-3 -5 -1 -10 4 -10 6 0 11 5 11 10 0 6 -2 10 -4 10 -3 0
-8 -4 -11 -10z"/>
<path d="M635 460 c3 -5 8 -10 11 -10 2 0 4 5 4 10 0 6 -5 10 -11 10 -5 0 -7
-4 -4 -10z"/>
<path d="M1402 450 c0 -14 2 -19 5 -12 2 6 2 18 0 25 -3 6 -5 1 -5 -13z"/>
<path d="M1700 459 c0 -5 5 -7 10 -4 6 3 10 8 10 11 0 2 -4 4 -10 4 -5 0 -10
-5 -10 -11z"/>
<path d="M1373 425 c0 -22 2 -30 4 -17 2 12 2 30 0 40 -3 9 -5 -1 -4 -23z"/>
<path d="M1393 345 c0 -22 2 -30 4 -17 2 12 2 30 0 40 -3 9 -5 -1 -4 -23z"/>
<path d="M1535 370 c-3 -5 -2 -10 4 -10 5 0 13 5 16 10 3 6 2 10 -4 10 -5 0
-13 -4 -16 -10z"/>
<path d="M770 350 c0 -5 7 -10 16 -10 8 0 12 5 9 10 -3 6 -10 10 -16 10 -5 0
-9 -4 -9 -10z"/>
<path d="M1010 300 c0 -5 5 -10 10 -10 6 0 10 5 10 10 0 6 -4 10 -10 10 -5 0
-10 -4 -10 -10z"/>
<path d="M1410 290 c8 -5 22 -9 30 -9 10 0 8 3 -5 9 -27 12 -43 12 -25 0z"/>
<path d="M780 1279 c0 -5 5 -7 10 -4 6 3 10 8 10 11 0 2 -4 4 -10 4 -5 0 -10
-5 -10 -11z"/>
<path d="M1001 1214 c0 -11 3 -14 6 -6 3 7 2 16 -1 19 -3 4 -6 -2 -5 -13z"/>
<path d="M991 1165 c0 -11 4 -29 9 -40 l9 -20 0 20 c0 11 -4 29 -9 40 l-9 20
0 -20z"/>
<path d="M775 1150 c3 -5 8 -10 11 -10 2 0 4 5 4 10 0 6 -5 10 -11 10 -5 0 -7
-4 -4 -10z"/>
<path d="M908 1063 c-10 -2 -18 -9 -18 -14 0 -6 8 -5 20 1 11 6 20 13 20 15 0
3 -1 4 -2 4 -2 -1 -11 -3 -20 -6z"/>
<path d="M976 1061 c-4 -5 -2 -12 3 -15 5 -4 12 -2 15 3 4 5 2 12 -3 15 -5 4
-12 2 -15 -3z"/>
<path d="M925 1030 c-3 -6 1 -7 9 -4 18 7 21 14 7 14 -6 0 -13 -4 -16 -10z"/>
<path d="M1610 1286 c0 -2 7 -9 15 -16 12 -10 15 -10 15 4 0 9 -7 16 -15 16
-8 0 -15 -2 -15 -4z"/>
<path d="M1397 1184 c-4 -4 -7 -17 -7 -28 1 -19 1 -20 11 -3 11 19 8 43 -4 31z"/>
<path d="M1407 1128 c-8 -29 -4 -32 11 -8 6 10 8 21 3 24 -5 3 -11 -4 -14 -16z"/>
<path d="M1371 1124 c0 -11 3 -14 6 -6 3 7 2 16 -1 19 -3 4 -6 -2 -5 -13z"/>
<path d="M1606 1053 l-19 -26 31 23 c35 26 38 30 20 30 -7 0 -22 -12 -32 -27z"/>
<path d="M1465 1060 c4 -6 11 -8 16 -5 14 9 11 15 -7 15 -8 0 -12 -5 -9 -10z"/>
<path d="M1540 1060 c0 -5 7 -10 16 -10 8 0 12 5 9 10 -3 6 -10 10 -16 10 -5
0 -9 -4 -9 -10z"/>
</g>
</svg>
